M48
;GenerationSoftware,Autodesk,EAGLE,9.6.2*%
;CreationDate,2023-04-26T20:25:33Z*%
FMAT,2
ICI,OFF
METRIC,TZ,000.000
T3C0.381
T2C1.016
T1C3.302
%
G90
M71
T1
X132080Y2540
X54356Y2540
X22860Y22860
X2540Y22860
X22860Y2540
X2540Y2540
X48768Y22860
X28448Y22860
X48768Y2540
X28448Y2540
X74676Y22860
X54356Y22860
X74676Y2540
X100584Y22860
X80264Y22860
X100584Y2540
X80264Y2540
X126492Y22860
X106172Y22860
X126492Y2540
X106172Y2540
X152400Y22860
X132080Y22860
X152400Y2540
X132080Y28448
X22860Y48768
X2540Y48768
X22860Y28448
X2540Y28448
X48768Y48768
X28448Y48768
X48768Y28448
X28448Y28448
X74676Y48768
X54356Y48768
X74676Y28448
X54356Y28448
X100584Y48768
X80264Y48768
X100584Y28448
X80264Y28448
X126492Y48768
X106172Y48768
X126492Y28448
X106172Y28448
X152400Y48768
X132080Y48768
X152400Y28448
X132080Y80264
X22860Y74676
X2540Y74676
X22860Y54356
X2540Y54356
X48768Y74676
X28448Y74676
X48768Y54356
X28448Y54356
X74676Y74676
X54356Y74676
X74676Y54356
X54356Y54356
X100584Y74676
X80264Y74676
X100584Y54356
X80264Y54356
X126492Y74676
X106172Y74676
X126492Y54356
X106172Y54356
X152400Y74676
X132080Y74676
X152400Y54356
X132080Y54356
X22860Y100584
X2540Y100584
X22860Y80264
X2540Y80264
X48768Y100584
X28448Y100584
X48768Y80264
X28448Y80264
X74676Y100584
X54356Y100584
X74676Y80264
X54356Y80264
X100584Y100584
X80264Y100584
X100584Y80264
X80264Y80264
X126492Y100584
X106172Y100584
X126492Y80264
X106172Y80264
X152400Y100584
X132080Y100584
X152400Y80264
T2
X146050Y78994
X8890Y1270
X11430Y1270
X13970Y1270
X16510Y1270
X34798Y1270
X37338Y1270
X39878Y1270
X42418Y1270
X60706Y1270
X63246Y1270
X65786Y1270
X68326Y1270
X86614Y1270
X89154Y1270
X91694Y1270
X94234Y1270
X112522Y1270
X115062Y1270
X117602Y1270
X120142Y1270
X138430Y1270
X140970Y1270
X143510Y1270
X146050Y1270
X8890Y27178
X11430Y27178
X13970Y27178
X16510Y27178
X34798Y27178
X37338Y27178
X39878Y27178
X42418Y27178
X60706Y27178
X63246Y27178
X65786Y27178
X68326Y27178
X86614Y27178
X89154Y27178
X91694Y27178
X94234Y27178
X112522Y27178
X115062Y27178
X117602Y27178
X120142Y27178
X138430Y27178
X140970Y27178
X143510Y27178
X146050Y27178
X8890Y53086
X11430Y53086
X13970Y53086
X16510Y53086
X34798Y53086
X37338Y53086
X39878Y53086
X42418Y53086
X60706Y53086
X63246Y53086
X65786Y53086
X68326Y53086
X86614Y53086
X89154Y53086
X91694Y53086
X94234Y53086
X112522Y53086
X115062Y53086
X117602Y53086
X120142Y53086
X138430Y53086
X140970Y53086
X143510Y53086
X146050Y53086
X8890Y78994
X11430Y78994
X13970Y78994
X16510Y78994
X34798Y78994
X37338Y78994
X39878Y78994
X42418Y78994
X60706Y78994
X63246Y78994
X65786Y78994
X68326Y78994
X86614Y78994
X89154Y78994
X91694Y78994
X94234Y78994
X112522Y78994
X115062Y78994
X117602Y78994
X120142Y78994
X138430Y78994
X140970Y78994
X143510Y78994
T3
X88646Y10922
X87884Y4318
X89154Y21336
X89154Y18034
X89154Y7366
X99822Y12192
X81026Y13208
X102108Y6350
X102108Y8128
X78486Y19050
X92964Y7366
X96774Y13208
X91694Y7366
X84265Y11176
X96774Y14224
X95504Y8890
X104394Y17272
X104394Y4826
X104394Y8382
X104394Y13970
X104394Y11430
X109982Y14224
X113792Y18034
X112268Y18542
X119634Y18034
X124206Y10160
X122936Y7239
X116332Y7366
X112522Y8890
X113792Y7366
X128016Y5080
X108458Y762
X116332Y4318
X118872Y4318
X122936Y4318
X104394Y20828
X108204Y24638
X124460Y24638
X116332Y24638
X112014Y24638
X120396Y24638
X128270Y20828
X128270Y17018
X128270Y13970
X128270Y11430
X122682Y15240
X112522Y16510
X120142Y16510
X120142Y8890
X118110Y14478
X118110Y10922
X114554Y14478
X114554Y10922
X113792Y4318
X115062Y21336
X115062Y18034
X115062Y7366
X125730Y12192
X106934Y13208
X128016Y6350
X128016Y8128
X104394Y19050
X118872Y7366
X122682Y13208
X117602Y7366
X110172Y11176
X122682Y14224
X121412Y8890
X130302Y17272
X130302Y4826
X130302Y8382
X130302Y13970
X130302Y11430
X135890Y14224
X139700Y18034
X138176Y18542
X145542Y18034
X150114Y10160
X148844Y7239
X142240Y7366
X138430Y8890
X139700Y7366
X153924Y5080
X134366Y762
X142240Y4318
X144780Y4318
X148844Y4318
X130302Y20828
X134112Y24638
X150368Y24638
X142240Y24638
X137922Y24638
X146304Y24638
X154178Y20828
X154178Y17018
X154178Y13970
X154178Y11430
X148590Y15240
X138430Y16510
X146050Y16510
X146050Y8890
X144018Y14478
X144018Y10922
X140462Y14478
X140462Y10922
X139700Y4318
X140970Y21336
X140970Y18034
X140970Y7366
X151638Y12192
X132842Y13208
X153924Y6350
X153924Y8128
X130302Y19050
X144780Y7366
X148590Y13208
X143510Y7366
X136081Y11176
X148590Y14224
X147320Y8890
X762Y43180
X762Y30734
X762Y34290
X762Y39878
X762Y37338
X6350Y40132
X10160Y43942
X8636Y44450
X16002Y43942
X20574Y36068
X19304Y33147
X12700Y33274
X8890Y34798
X10160Y33274
X24384Y30988
X4826Y26670
X12700Y30226
X15240Y30226
X19304Y30226
X762Y46736
X4572Y50546
X20828Y50546
X12700Y50546
X8382Y50546
X16764Y50546
X24638Y46736
X24638Y42926
X24638Y39878
X24638Y37338
X19050Y41148
X8890Y42418
X16510Y42418
X16510Y34798
X14478Y40386
X14478Y36830
X10922Y40386
X10922Y36830
X10160Y30226
X11430Y47244
X11430Y43942
X11430Y33274
X22098Y38100
X3302Y39116
X24384Y32258
X24384Y34036
X762Y44958
X15240Y33274
X19050Y39116
X13970Y33274
X6540Y37084
X19050Y40132
X17780Y34798
X26670Y43180
X26670Y30734
X26670Y34290
X26670Y39878
X26670Y37338
X32258Y40132
X36068Y43942
X34544Y44450
X41910Y43942
X46482Y36068
X45212Y33147
X38608Y33274
X34798Y34798
X36068Y33274
X50292Y30988
X30734Y26670
X38608Y30226
X41148Y30226
X45212Y30226
X26670Y46736
X30480Y50546
X46736Y50546
X38608Y50546
X34290Y50546
X42672Y50546
X50546Y46736
X50546Y42926
X50546Y39878
X50546Y37338
X44958Y41148
X34798Y42418
X42418Y42418
X42418Y34798
X40386Y40386
X40386Y36830
X36830Y40386
X36830Y36830
X36068Y30226
X37338Y47244
X37338Y43942
X37338Y33274
X48006Y38100
X29210Y39116
X50292Y32258
X50292Y34036
X26670Y44958
X41148Y33274
X44958Y39116
X39878Y33274
X32448Y37084
X44958Y40132
X43688Y34798
X52578Y43180
X52578Y30734
X52578Y34290
X52578Y39878
X52578Y37338
X58166Y40132
X61976Y43942
X60452Y44450
X67818Y43942
X72390Y36068
X71120Y33147
X64516Y33274
X60706Y34798
X61976Y33274
X76200Y30988
X56642Y26670
X64516Y30226
X67056Y30226
X71120Y30226
X52578Y46736
X56388Y50546
X72644Y50546
X64516Y50546
X60198Y50546
X68580Y50546
X76454Y46736
X76454Y42926
X76454Y39878
X76454Y37338
X70866Y41148
X60706Y42418
X68326Y42418
X68326Y34798
X66294Y40386
X66294Y36830
X62738Y40386
X62738Y36830
X61976Y30226
X63246Y47244
X63246Y43942
X63246Y33274
X73914Y38100
X55118Y39116
X76200Y32258
X76200Y34036
X52578Y44958
X67056Y33274
X70866Y39116
X65786Y33274
X58356Y37084
X70866Y40132
X69596Y34798
X78486Y43180
X78486Y30734
X78486Y34290
X78486Y39878
X78486Y37338
X84074Y40132
X87884Y43942
X86360Y44450
X93726Y43942
X98298Y36068
X97028Y33147
X90424Y33274
X86614Y34798
X87884Y33274
X102108Y30988
X82550Y26670
X90424Y30226
X92964Y30226
X97028Y30226
X78486Y46736
X82296Y50546
X98552Y50546
X90424Y50546
X86106Y50546
X94488Y50546
X102362Y46736
X102362Y42926
X102362Y39878
X102362Y37338
X96774Y41148
X86614Y42418
X94234Y42418
X94234Y34798
X92202Y40386
X92202Y36830
X88646Y40386
X88646Y36830
X87884Y30226
X89154Y47244
X89154Y43942
X89154Y33274
X99822Y38100
X81026Y39116
X102108Y32258
X102108Y34036
X78486Y44958
X92964Y33274
X96774Y39116
X91694Y33274
X84265Y37084
X96774Y40132
X95504Y34798
X104394Y43180
X104394Y30734
X104394Y34290
X104394Y39878
X104394Y37338
X109982Y40132
X113792Y43942
X112268Y44450
X119634Y43942
X124206Y36068
X122936Y33147
X116332Y33274
X112522Y34798
X113792Y33274
X128016Y30988
X108458Y26670
X116332Y30226
X118872Y30226
X122936Y30226
X104394Y46736
X108204Y50546
X124460Y50546
X116332Y50546
X112014Y50546
X120396Y50546
X128270Y46736
X128270Y42926
X128270Y39878
X128270Y37338
X122682Y41148
X112522Y42418
X120142Y42418
X120142Y34798
X118110Y40386
X118110Y36830
X114554Y40386
X114554Y36830
X113792Y30226
X115062Y47244
X115062Y43942
X115062Y33274
X125730Y38100
X106934Y39116
X128016Y32258
X128016Y34036
X104394Y44958
X118872Y33274
X122682Y39116
X117602Y33274
X110172Y37084
X122682Y40132
X121412Y34798
X130302Y43180
X130302Y30734
X130302Y34290
X130302Y39878
X130302Y37338
X135890Y40132
X139700Y43942
X138176Y44450
X145542Y43942
X150114Y36068
X148844Y33147
X142240Y33274
X138430Y34798
X139700Y33274
X153924Y30988
X134366Y26670
X142240Y30226
X144780Y30226
X148844Y30226
X130302Y46736
X134112Y50546
X150368Y50546
X142240Y50546
X137922Y50546
X146304Y50546
X154178Y46736
X154178Y42926
X154178Y39878
X154178Y37338
X148590Y41148
X138430Y42418
X146050Y42418
X146050Y34798
X144018Y40386
X144018Y36830
X140462Y40386
X140462Y36830
X139700Y30226
X140970Y47244
X140970Y43942
X140970Y33274
X151638Y38100
X132842Y39116
X153924Y32258
X153924Y34036
X130302Y44958
X144780Y33274
X148590Y39116
X143510Y33274
X136081Y37084
X148590Y40132
X147320Y34798
X762Y69088
X762Y56642
X762Y60198
X762Y65786
X762Y63246
X6350Y66040
X10160Y69850
X8636Y70358
X16002Y69850
X20574Y61976
X19304Y59055
X12700Y59182
X8890Y60706
X10160Y59182
X24384Y56896
X4826Y52578
X12700Y56134
X15240Y56134
X19304Y56134
X762Y72644
X4572Y76454
X20828Y76454
X12700Y76454
X8382Y76454
X16764Y76454
X24638Y72644
X24638Y68834
X24638Y65786
X24638Y63246
X19050Y67056
X8890Y68326
X16510Y68326
X16510Y60706
X14478Y66294
X14478Y62738
X10922Y66294
X10922Y62738
X10160Y56134
X11430Y73152
X11430Y69850
X11430Y59182
X22098Y64008
X3302Y65024
X24384Y58166
X24384Y59944
X762Y70866
X15240Y59182
X19050Y65024
X13970Y59182
X6540Y62992
X19050Y66040
X17780Y60706
X26670Y69088
X26670Y56642
X26670Y60198
X26670Y65786
X26670Y63246
X32258Y66040
X36068Y69850
X34544Y70358
X41910Y69850
X46482Y61976
X45212Y59055
X38608Y59182
X34798Y60706
X36068Y59182
X50292Y56896
X30734Y52578
X38608Y56134
X41148Y56134
X45212Y56134
X26670Y72644
X30480Y76454
X46736Y76454
X38608Y76454
X34290Y76454
X42672Y76454
X50546Y72644
X50546Y68834
X50546Y65786
X50546Y63246
X44958Y67056
X34798Y68326
X42418Y68326
X42418Y60706
X40386Y66294
X40386Y62738
X36830Y66294
X36830Y62738
X36068Y56134
X37338Y73152
X37338Y69850
X37338Y59182
X48006Y64008
X29210Y65024
X50292Y58166
X94488Y24638
X26670Y70866
X41148Y59182
X44958Y65024
X39878Y59182
X32448Y62992
X44958Y66040
X43688Y60706
X52578Y69088
X52578Y56642
X52578Y60198
X52578Y65786
X52578Y63246
X58166Y66040
X61976Y69850
X60452Y70358
X67818Y69850
X72390Y61976
X71120Y59055
X64516Y59182
X60706Y60706
X61976Y59182
X76200Y56896
X56642Y52578
X64516Y56134
X67056Y56134
X71120Y56134
X52578Y72644
X56388Y76454
X72644Y76454
X64516Y76454
X60198Y76454
X68580Y76454
X76454Y72644
X76454Y68834
X76454Y65786
X76454Y63246
X70866Y67056
X60706Y68326
X68326Y68326
X68326Y60706
X66294Y66294
X66294Y62738
X62738Y66294
X62738Y62738
X61976Y56134
X63246Y73152
X63246Y69850
X63246Y59182
X73914Y64008
X55118Y65024
X76200Y58166
X76200Y59944
X52578Y70866
X67056Y59182
X70866Y65024
X65786Y59182
X58356Y62992
X70866Y66040
X69596Y60706
X78486Y69088
X78486Y56642
X78486Y60198
X78486Y65786
X78486Y63246
X84074Y66040
X87884Y69850
X86360Y70358
X93726Y69850
X98298Y61976
X97028Y59055
X90424Y59182
X86614Y60706
X87884Y59182
X102108Y56896
X82550Y52578
X90424Y56134
X92964Y56134
X97028Y56134
X78486Y72644
X82296Y76454
X98552Y76454
X90424Y76454
X86106Y76454
X94488Y76454
X102362Y72644
X102362Y68834
X102362Y65786
X102362Y63246
X96774Y67056
X86614Y68326
X94234Y68326
X94234Y60706
X92202Y66294
X92202Y62738
X88646Y66294
X88646Y62738
X87884Y56134
X89154Y73152
X89154Y69850
X89154Y59182
X99822Y64008
X81026Y65024
X102108Y58166
X102108Y59944
X78486Y70866
X92964Y59182
X96774Y65024
X91694Y59182
X84265Y62992
X96774Y66040
X95504Y60706
X104394Y69088
X104394Y56642
X104394Y60198
X104394Y65786
X104394Y63246
X109982Y66040
X113792Y69850
X112268Y70358
X119634Y69850
X124206Y61976
X122936Y59055
X116332Y59182
X112522Y60706
X113792Y59182
X128016Y56896
X108458Y52578
X116332Y56134
X118872Y56134
X122936Y56134
X104394Y72644
X108204Y76454
X124460Y76454
X116332Y76454
X112014Y76454
X120396Y76454
X128270Y72644
X128270Y68834
X128270Y65786
X128270Y63246
X122682Y67056
X112522Y68326
X120142Y68326
X120142Y60706
X118110Y66294
X118110Y62738
X114554Y66294
X114554Y62738
X113792Y56134
X115062Y73152
X115062Y69850
X115062Y59182
X125730Y64008
X106934Y65024
X128016Y58166
X128016Y59944
X104394Y70866
X118872Y59182
X122682Y65024
X117602Y59182
X110172Y62992
X122682Y66040
X121412Y60706
X130302Y69088
X130302Y56642
X130302Y60198
X130302Y65786
X130302Y63246
X135890Y66040
X139700Y69850
X138176Y70358
X145542Y69850
X150114Y61976
X148844Y59055
X142240Y59182
X138430Y60706
X139700Y59182
X153924Y56896
X134366Y52578
X142240Y56134
X144780Y56134
X148844Y56134
X130302Y72644
X134112Y76454
X150368Y76454
X142240Y76454
X137922Y76454
X146304Y76454
X154178Y72644
X154178Y68834
X154178Y65786
X154178Y63246
X148590Y67056
X138430Y68326
X146050Y68326
X146050Y60706
X144018Y66294
X144018Y62738
X140462Y66294
X140462Y62738
X139700Y56134
X140970Y73152
X140970Y69850
X140970Y59182
X151638Y64008
X132842Y65024
X153924Y58166
X153924Y59944
X130302Y70866
X144780Y59182
X148590Y65024
X143510Y59182
X136081Y62992
X148590Y66040
X147320Y60706
X762Y94996
X762Y82550
X762Y86106
X762Y91694
X762Y89154
X6350Y91948
X10160Y95758
X8636Y96266
X16002Y95758
X20574Y87884
X19304Y84963
X12700Y85090
X8890Y86614
X10160Y85090
X24384Y82804
X4826Y78486
X12700Y82042
X15240Y82042
X19304Y82042
X762Y98552
X4572Y102362
X20828Y102362
X12700Y102362
X8382Y102362
X16764Y102362
X24638Y98552
X24638Y94742
X24638Y91694
X24638Y89154
X19050Y92964
X8890Y94234
X16510Y94234
X16510Y86614
X14478Y92202
X14478Y88646
X10922Y92202
X10922Y88646
X10160Y82042
X11430Y99060
X11430Y95758
X11430Y85090
X22098Y89916
X3302Y90932
X24384Y84074
X24384Y85852
X762Y96774
X15240Y85090
X19050Y90932
X13970Y85090
X6540Y88900
X19050Y91948
X17780Y86614
X26670Y94996
X26670Y82550
X26670Y86106
X26670Y91694
X26670Y89154
X32258Y91948
X36068Y95758
X34544Y96266
X41910Y95758
X46482Y87884
X45212Y84963
X38608Y85090
X34798Y86614
X36068Y85090
X50292Y82804
X30734Y78486
X38608Y82042
X41148Y82042
X45212Y82042
X26670Y98552
X30480Y102362
X46736Y102362
X38608Y102362
X34290Y102362
X42672Y102362
X50546Y98552
X50546Y94742
X50546Y91694
X50546Y89154
X44958Y92964
X34798Y94234
X42418Y94234
X42418Y86614
X40386Y92202
X40386Y88646
X36830Y92202
X36830Y88646
X36068Y82042
X37338Y99060
X37338Y95758
X37338Y85090
X48006Y89916
X29210Y90932
X50292Y84074
X50292Y85852
X26670Y96774
X41148Y85090
X44958Y90932
X39878Y85090
X32448Y88900
X44958Y91948
X43688Y86614
X52578Y94996
X52578Y82550
X52578Y86106
X52578Y91694
X52578Y89154
X58166Y91948
X61976Y95758
X60452Y96266
X67818Y95758
X72390Y87884
X71120Y84963
X64516Y85090
X60706Y86614
X61976Y85090
X76200Y82804
X56642Y78486
X64516Y82042
X67056Y82042
X71120Y82042
X52578Y98552
X56388Y102362
X72644Y102362
X64516Y102362
X60198Y102362
X68580Y102362
X76454Y98552
X76454Y94742
X76454Y91694
X76454Y89154
X70866Y92964
X60706Y94234
X68326Y94234
X68326Y86614
X66294Y92202
X66294Y88646
X62738Y92202
X62738Y88646
X61976Y82042
X63246Y99060
X762Y17272
X63246Y85090
X73914Y89916
X55118Y90932
X76200Y84074
X76200Y85852
X52578Y96774
X67056Y85090
X70866Y90932
X65786Y85090
X58356Y88900
X70866Y91948
X69596Y86614
X78486Y94996
X78486Y82550
X78486Y86106
X78486Y91694
X78486Y89154
X84074Y91948
X87884Y95758
X86360Y96266
X93726Y95758
X98298Y87884
X97028Y84963
X90424Y85090
X86614Y86614
X87884Y85090
X102108Y82804
X82550Y78486
X90424Y82042
X92964Y82042
X97028Y82042
X78486Y98552
X82296Y102362
X98552Y102362
X90424Y102362
X86106Y102362
X94488Y102362
X102362Y98552
X102362Y94742
X102362Y91694
X102362Y89154
X96774Y92964
X86614Y94234
X94234Y94234
X94234Y86614
X92202Y92202
X92202Y88646
X88646Y92202
X88646Y88646
X87884Y82042
X89154Y99060
X89154Y95758
X89154Y85090
X99822Y89916
X81026Y90932
X102108Y84074
X102108Y85852
X78486Y96774
X92964Y85090
X96774Y90932
X91694Y85090
X84265Y88900
X96774Y91948
X95504Y86614
X104394Y94996
X104394Y82550
X104394Y86106
X104394Y91694
X104394Y89154
X109982Y91948
X113792Y95758
X112268Y96266
X119634Y95758
X124206Y87884
X122936Y84963
X116332Y85090
X112522Y86614
X113792Y85090
X128016Y82804
X108458Y78486
X116332Y82042
X118872Y82042
X122936Y82042
X104394Y98552
X108204Y102362
X124460Y102362
X116332Y102362
X112014Y102362
X120396Y102362
X128270Y98552
X128270Y94742
X128270Y91694
X128270Y89154
X122682Y92964
X112522Y94234
X120142Y94234
X120142Y86614
X118110Y92202
X118110Y88646
X114554Y92202
X114554Y88646
X113792Y82042
X115062Y99060
X115062Y95758
X115062Y85090
X125730Y89916
X106934Y90932
X128016Y84074
X128016Y85852
X104394Y96774
X118872Y85090
X122682Y90932
X117602Y85090
X110172Y88900
X122682Y91948
X121412Y86614
X130302Y94996
X130302Y82550
X130302Y86106
X130302Y91694
X130302Y89154
X135890Y91948
X139700Y95758
X138176Y96266
X145542Y95758
X150114Y87884
X148844Y84963
X142240Y85090
X138430Y86614
X139700Y85090
X153924Y82804
X134366Y78486
X142240Y82042
X144780Y82042
X148844Y82042
X130302Y98552
X134112Y102362
X150368Y102362
X142240Y102362
X137922Y102362
X146304Y102362
X154178Y98552
X154178Y94742
X154178Y91694
X154178Y89154
X148590Y92964
X138430Y94234
X146050Y94234
X146050Y86614
X144018Y92202
X144018Y88646
X140462Y92202
X140462Y88646
X139700Y82042
X140970Y99060
X140970Y95758
X140970Y85090
X151638Y89916
X132842Y90932
X153924Y84074
X153924Y85852
X130302Y96774
X144780Y85090
X148590Y90932
X143510Y85090
X136081Y88900
X148590Y91948
X147320Y86614
X762Y4826
X762Y8382
X762Y13970
X762Y11430
X6350Y14224
X10160Y18034
X8636Y18542
X16002Y18034
X20574Y10160
X19304Y7239
X12700Y7366
X50292Y59944
X8890Y8890
X10160Y7366
X24384Y5080
X4826Y762
X12700Y4318
X15240Y4318
X19304Y4318
X762Y20828
X4572Y24638
X20828Y24638
X12700Y24638
X8382Y24638
X16764Y24638
X24638Y20828
X24638Y17018
X24638Y13970
X24638Y11430
X19050Y15240
X8890Y16510
X16510Y16510
X16510Y8890
X14478Y14478
X14478Y10922
X10922Y14478
X10922Y10922
X10160Y4318
X11430Y21336
X11430Y18034
X11430Y7366
X22098Y12192
X3302Y13208
X24384Y6350
X24384Y8128
X762Y19050
X15240Y7366
X19050Y13208
X13970Y7366
X6540Y11176
X19050Y14224
X17780Y8890
X26670Y17272
X26670Y4826
X26670Y8382
X26670Y13970
X26670Y11430
X32258Y14224
X36068Y18034
X34544Y18542
X41910Y18034
X46482Y10160
X45212Y7239
X38608Y7366
X34798Y8890
X36068Y7366
X50292Y5080
X30734Y762
X38608Y4318
X41148Y4318
X45212Y4318
X26670Y20828
X30480Y24638
X46736Y24638
X38608Y24638
X34290Y24638
X42672Y24638
X50546Y20828
X50546Y17018
X50546Y13970
X50546Y11430
X44958Y15240
X34798Y16510
X42418Y16510
X42418Y8890
X40386Y14478
X40386Y10922
X36830Y14478
X36830Y10922
X36068Y4318
X37338Y21336
X37338Y18034
X37338Y7366
X48006Y12192
X29210Y13208
X50292Y6350
X50292Y8128
X26670Y19050
X41148Y7366
X44958Y13208
X39878Y7366
X32448Y11176
X44958Y14224
X43688Y8890
X52578Y17272
X52578Y4826
X52578Y8382
X52578Y13970
X52578Y11430
X58166Y14224
X61976Y18034
X60452Y18542
X67818Y18034
X72390Y10160
X71120Y7239
X64516Y7366
X60706Y8890
X61976Y7366
X76200Y5080
X56642Y762
X64516Y4318
X67056Y4318
X71120Y4318
X52578Y20828
X56388Y24638
X72644Y24638
X64516Y24638
X60198Y24638
X68580Y24638
X76454Y20828
X76454Y17018
X76454Y13970
X76454Y11430
X70866Y15240
X60706Y16510
X68326Y16510
X68326Y8890
X66294Y14478
X66294Y10922
X62738Y14478
X62738Y10922
X61976Y4318
X63246Y21336
X63246Y18034
X63246Y7366
X73914Y12192
X55118Y13208
X76200Y6350
X76200Y8128
X52578Y19050
X67056Y7366
X70866Y13208
X65786Y7366
X58356Y11176
X70866Y14224
X69596Y8890
X78486Y17272
X78486Y4826
X78486Y8382
X78486Y13970
X78486Y11430
X84074Y14224
X87884Y18034
X86360Y18542
X93726Y18034
X98298Y10160
X97028Y7239
X90424Y7366
X86614Y8890
X87884Y7366
X102108Y5080
X82550Y762
X90424Y4318
X92964Y4318
X97028Y4318
X78486Y20828
X82296Y24638
X98552Y24638
X90424Y24638
X86106Y24638
X102362Y20828
X102362Y17018
X102362Y13970
X102362Y11430
X96774Y15240
X86614Y16510
X94234Y16510
X94234Y8890
X92202Y14478
X92202Y10922
X88646Y14478
X63246Y95758
M30